Coordinates
version=1
nRows=11
nColumns=42
inDegrees=yes

Units are S.I. units (second, meters, Newtons, ...)
If the header above contains a line with 'inDegrees', this indicates whether rotational values are in degrees (yes) or radians (no).

endheader
time	pelvis_tilt	pelvis_list	pelvis_rotation	pelvis_tx	pelvis_ty	pelvis_tz	hip_flexion_r	hip_adduction_r	hip_rotation_r	knee_angle_r	knee_adduction_r	knee_angle_r_beta	ankle_angle_r	subtalar_angle_r	mtp_angle_r	hip_flexion_l	hip_adduction_l	hip_rotation_l	knee_angle_l	knee_adduction_l	knee_angle_l_beta	ankle_angle_l	subtalar_angle_l	mtp_angle_l	lumbar_extension	lumbar_bending	lumbar_rotation	arm_flex_r	arm_add_r	arm_rot_r	elbow_flex_r	pro_sup_r	wrist_flex_r	wrist_dev_r	arm_flex_l	arm_add_l	arm_rot_l	elbow_flex_l	pro_sup_l	wrist_flex_l	wrist_dev_l
      4.25000000	     12.23342422	      1.19426011	      3.29073862	      0.20269694	      0.88437560	     -0.13867412	     -8.56194789	      1.75211752	    -17.89670878	     24.26514544	      0.10321781	      0.42350668	     23.99713845	     28.53295750	     -7.50156679	     16.30541398	     -1.95824328	     -6.67145233	     31.12874071	     -2.33261487	      0.54329902	     11.02808050	     16.22832662	     -7.50156679	    -29.61264646	      5.32762002	     -3.53421873	      7.41872672	    -13.91554654	     -0.36812639	     49.92599259	     90.00000001	      0.00000000	      0.00000000	     14.35909382	     -9.22967633	     26.68741581	     50.79607484	     90.00000001	      0.00000000	      0.00000000
      4.26000000	     12.26757866	      1.13017202	      3.30427681	      0.20570761	      0.88400566	     -0.13889126	     -8.81570738	      1.79736138	    -17.89847158	     24.29826996	      0.16780452	      0.42408481	     24.04519544	     28.44432411	     -7.50156024	     16.54939416	     -1.94465503	     -6.85092286	     30.88575432	     -2.23972532	      0.53905810	     11.05685113	     16.25469041	     -7.50156024	    -29.55428618	      5.42602835	     -3.58695767	      7.33085272	    -13.99727070	     -0.33812374	     49.83953877	     90.00000001	      0.00000000	      0.00000000	     14.32668016	     -9.24116669	     26.64047059	     50.79080826	     90.00000001	      0.00000000	      0.00000000
      4.27000000	     12.28956937	      1.08555041	      3.32582485	      0.20863312	      0.88358077	     -0.13910806	     -9.02560925	      1.85137731	    -17.83326594	     24.39226310	      0.16578389	      0.42572530	     24.04674770	     28.36636962	     -7.50155464	     16.82541224	     -1.90439740	     -6.95043795	     30.73856243	     -2.11255692	      0.53648912	     11.06274424	     16.24732144	     -7.50155464	    -29.51528348	      5.49573066	     -3.63914194	      7.24435845	    -14.09542454	     -0.33784502	     49.77923828	     90.00000001	      0.00000000	      0.00000000	     14.34675089	     -9.26145456	     26.59504413	     50.81109443	     90.00000001	      0.00000000	      0.00000000
      4.28000000	     12.36392725	      1.00580304	      3.33938946	      0.21178143	      0.88328249	     -0.13937672	     -9.38430829	      1.91440063	    -17.90527555	     24.32175362	      0.21953361	      0.42449468	     24.23166879	     28.39916835	     -7.50155503	     16.92835122	     -1.87551154	     -7.02598211	     30.40651061	     -2.00872870	      0.53069372	     11.11001224	     16.34063654	     -7.50155503	    -29.49346515	      5.60354256	     -3.69253386	      7.19961307	    -14.17851970	     -0.29056035	     49.57744723	     90.00000001	      0.00000000	      0.00000000	     14.30103702	     -9.25103768	     26.58919695	     50.74123943	     90.00000001	      0.00000000	      0.00000000
      4.29000000	     12.57785618	      1.01214754	      3.31399514	      0.21491807	      0.88333122	     -0.13964737	     -9.92465227	      1.91279379	    -17.79341967	     24.19898408	      0.26470635	      0.42235195	     24.55606605	     28.47096950	     -7.50155007	     16.71122478	     -1.77170518	     -6.93644598	     29.86459169	     -1.78349976	      0.52123545	     11.11291671	     16.71891497	     -7.50155007	    -29.64445168	      5.63267850	     -3.80916791	      7.34123257	    -14.26581948	     -0.02138473	     48.99962770	     90.00000001	      0.00000000	      0.00000000	     14.30830725	     -9.25638311	     26.45111108	     50.64899717	     90.00000001	      0.00000000	      0.00000000
      4.30000000	     12.61272911	      0.95131533	      3.31093769	      0.21807271	      0.88296163	     -0.13994292	    -10.22524601	      1.92862650	    -17.87361811	     24.17421859	      0.33674754	      0.42191971	     24.63960405	     28.44411516	     -7.50154621	     16.84087486	     -1.74188470	     -7.10778309	     29.65164537	     -1.67990815	      0.51751884	     11.13048652	     16.72141586	     -7.50154621	    -29.61193557	      5.73324969	     -3.85114747	      7.30306061	    -14.36788165	      0.03456838	     48.80706141	     90.00000001	      0.00000000	      0.00000000	     14.26382057	     -9.25048379	     26.41426437	     50.63558064	     90.00000001	      0.00000000	      0.00000000
      4.31000000	     12.63155030	      0.89424484	      3.30884494	      0.22109419	      0.88255161	     -0.14026434	    -10.46239745	      1.97097944	    -17.87358863	     24.21128330	      0.35069202	      0.42256661	     24.69327042	     28.42263984	     -7.50154254	     16.99261614	     -1.69582529	     -7.22906613	     29.50588110	     -1.56500299	      0.51497477	     11.13315306	     16.71095386	     -7.50154254	    -29.60497133	      5.81086394	     -3.90224963	      7.28530729	    -14.47905950	      0.06220612	     48.65287302	     90.00000001	      0.00000000	      0.00000000	     14.25961593	     -9.23475351	     26.38858320	     50.63762100	     90.00000001	      0.00000000	      0.00000000
      4.32000000	     12.67214045	      0.83186143	      3.30458131	      0.22416966	      0.88217079	     -0.14065622	    -10.74278200	      2.00731410	    -17.91629962	     24.20624074	      0.37286236	      0.42247860	     24.81742205	     28.45641497	     -7.50154109	     17.06281253	     -1.66405607	     -7.39879673	     29.30702202	     -1.44935088	      0.51150403	     11.14226017	     16.70138123	     -7.50154109	    -29.60207886	      5.91529138	     -3.94006956	      7.30329191	    -14.60614576	      0.10822776	     48.40510689	     90.00000001	      0.00000000	      0.00000000	     14.25396021	     -9.21801652	     26.37671291	     50.61412636	     90.00000001	      0.00000000	      0.00000000
      4.33000000	     12.73301983	      0.82584163	      3.07411627	      0.22722103	      0.88190560	     -0.14073494	    -10.98756261	      1.95205477	    -17.73348044	     24.30615307	      0.35656230	      0.42422240	     25.11843222	     28.51582075	     -7.50151750	     16.98910680	     -1.62947415	     -7.72377112	     29.00132029	     -1.31703565	      0.50616853	     11.01023344	     16.60987714	     -7.50151750	    -29.65507273	      5.85843918	     -3.91777196	      7.61840198	    -14.69121919	      0.50886932	     47.50901762	     90.00000001	      0.00000000	      0.00000000	     14.19976478	     -9.20385974	     26.19994831	     50.59782666	     90.00000001	      0.00000000	      0.00000000
      4.34000000	     12.71761729	      0.79926366	      2.89570250	      0.23024783	      0.88142988	     -0.14104616	    -11.13040932	      1.88790211	    -17.66139107	     24.44992437	      0.35687659	      0.42673168	     25.29595886	     28.56638755	     -7.50148869	     17.04838832	     -1.56543507	     -8.05960074	     28.83386534	     -1.26634329	      0.50324589	     10.92362675	     16.40477099	     -7.50148869	    -29.63159982	      5.86618215	     -3.89527227	      7.76866563	    -14.87369039	      0.73727853	     47.09102230	     90.00000001	      0.00000000	      0.00000000	     14.14807965	     -9.18074830	     26.07147849	     50.59677409	     90.00000001	      0.00000000	      0.00000000
      4.35000000	     12.65144401	      0.72066205	      2.85877536	      0.23324995	      0.88083126	     -0.14152870	    -11.24471492	      1.91364016	    -17.65446438	     24.53523238	      0.37799678	      0.42822059	     25.31266407	     28.54032586	     -7.50148384	     17.18233104	     -1.54381693	     -8.22738262	     28.74200927	     -1.15777467	      0.50164270	     10.91929113	     16.33270894	     -7.50148384	    -29.57463026	      5.99009548	     -3.90745334	      7.77727015	    -14.98882366	      0.73116195	     47.02968306	     90.00000001	      0.00000000	      0.00000000	     14.13449915	     -9.11663857	     26.07371448	     50.62567065	     90.00000001	      0.00000000	      0.00000000
